<svg width="32" height="44" viewBox="0 0 32 44" fill="none" xmlns="http://www.w3.org/2000/svg">
<path d="M16.2099 14.8846C17.0675 14.8846 18.1426 14.3048 18.7827 13.5318C19.3625 12.8312 19.7853 11.8528 19.7853 10.8744C19.7853 10.7416 19.7732 10.6087 19.749 10.5C18.7948 10.5362 17.6473 11.1402 16.9588 11.9495C16.4153 12.5655 15.9201 13.5318 15.9201 14.5223C15.9201 14.6672 15.9442 14.8121 15.9563 14.8605C16.0167 14.8725 16.1133 14.8846 16.2099 14.8846ZM13.1902 29.5C14.3619 29.5 14.8813 28.7149 16.3428 28.7149C17.8285 28.7149 18.1546 29.4758 19.4592 29.4758C20.7395 29.4758 21.5971 28.2921 22.4064 27.1325C23.3123 25.8039 23.6867 24.4994 23.7109 24.439C23.6264 24.4148 21.1743 23.4123 21.1743 20.5979C21.1743 18.158 23.107 17.0588 23.2157 16.9743C21.9353 15.1383 19.9906 15.09 19.4592 15.09C18.0218 15.09 16.8501 15.9596 16.1133 15.9596C15.3161 15.9596 14.2653 15.1383 13.0211 15.1383C10.6537 15.1383 8.25 17.095 8.25 20.7912C8.25 23.0861 9.14383 25.514 10.243 27.0842C11.1852 28.4129 12.0065 29.5 13.1902 29.5Z" fill="white"/>
</svg>
