<svg width="143" height="44" viewBox="0 0 143 44" fill="none" xmlns="http://www.w3.org/2000/svg">
<path d="M34.1293 19.5048C27.2177 15.2937 15.8143 14.905 9.21433 16.9602C8.83304 17.0779 8.42504 17.0773 8.04409 16.9585C7.66314 16.8397 7.32713 16.6082 7.08033 16.2947C6.82846 15.9783 6.67379 15.5956 6.63507 15.1931C6.59634 14.7906 6.67523 14.3854 6.86217 14.0268C7.1115 13.5465 7.5405 13.1835 8.05017 13.0222C15.6255 10.6627 28.2168 11.1192 36.1772 15.9647C36.4622 16.1421 36.7002 16.3857 36.8709 16.6748C37.0417 16.9638 37.1401 17.2899 37.1579 17.6251C37.1758 17.9604 37.1124 18.295 36.9733 18.6005C36.8341 18.9061 36.6233 19.1735 36.3587 19.3802C36.1489 19.5415 35.9089 19.6591 35.6529 19.7262C35.3969 19.7933 35.1301 19.8084 34.8682 19.7707C34.6078 19.734 34.3548 19.6423 34.1293 19.5048ZM33.902 25.7418C33.7892 25.9318 33.6399 26.0977 33.4627 26.2298C33.2856 26.362 33.0841 26.4578 32.8698 26.5118C32.656 26.5643 32.4338 26.5732 32.2164 26.5379C31.9991 26.5027 31.7911 26.4239 31.6048 26.3065C25.8408 22.671 17.0537 21.6187 10.2337 23.7435C9.91557 23.8418 9.57516 23.8413 9.25735 23.7421C8.93954 23.6429 8.65926 23.4497 8.4535 23.188C8.24468 22.9241 8.11662 22.6054 8.08474 22.2704C8.05287 21.9353 8.11853 21.5982 8.27383 21.2997C8.48005 20.9001 8.83593 20.5982 9.26383 20.46C17.0518 18.0345 26.7355 19.2097 33.3538 23.3842C33.7333 23.6291 34.0028 24.0119 34.1055 24.4518C34.2081 24.8917 34.1339 25.3542 33.902 25.7418ZM31.2803 31.7313C31.1907 31.8841 31.0716 32.0175 30.93 32.1239C30.7883 32.2302 30.627 32.3074 30.4553 32.351C30.2841 32.3938 30.106 32.4013 29.9317 32.3733C29.7574 32.3453 29.5907 32.2822 29.4415 32.1878C24.4035 29.0308 18.0675 28.3177 10.6022 30.0685C10.3425 30.1289 10.0705 30.109 9.82237 30.0114C9.57422 29.9139 9.36154 29.7433 9.2125 29.5222C9.1112 29.3755 9.03957 29.2105 9.00167 29.0363C8.92114 28.6834 8.98166 28.3131 9.17033 28.0042C9.26292 27.8523 9.38459 27.7201 9.52837 27.6154C9.67215 27.5106 9.8352 27.4353 10.0082 27.3937C18.1757 25.4778 25.1827 26.3028 30.8367 29.8467C31.1395 30.0429 31.3546 30.3488 31.4369 30.7001C31.5193 31.0514 31.4643 31.4209 31.2803 31.7313ZM21.4427 0C9.60117 0 0 9.8505 0 22C0 34.1513 9.59933 44 21.4445 44C33.2878 44 42.8908 34.1513 42.8908 22C42.8908 9.8505 33.2878 0 21.4427 0ZM58.3403 20.3097C54.6388 19.404 53.9788 18.7697 53.9788 17.4313C53.9788 16.17 55.1393 15.3212 56.8608 15.3212C58.5292 15.3212 60.1865 15.9665 61.9208 17.2938C61.9467 17.3134 61.9762 17.3276 62.0077 17.3355C62.0392 17.3433 62.072 17.3448 62.104 17.3396C62.136 17.3345 62.1667 17.3229 62.1942 17.3056C62.2216 17.2882 62.2452 17.2655 62.2637 17.2388L64.0732 14.6245C64.109 14.5724 64.1241 14.5088 64.1157 14.4461C64.1072 14.3834 64.0757 14.3261 64.0273 14.2853C61.9612 12.584 59.6347 11.759 56.914 11.759C52.9173 11.759 50.1252 14.2193 50.1252 17.7412C50.1252 21.5178 52.536 22.8525 56.6977 23.8865C60.2397 24.7243 60.8373 25.4265 60.8373 26.6805C60.8373 28.0683 59.6292 28.9337 57.684 28.9337C55.5207 28.9337 53.7588 28.1857 51.788 26.433C51.7638 26.4115 51.7355 26.3951 51.7048 26.3849C51.6741 26.3747 51.6416 26.3708 51.6094 26.3736C51.5771 26.3763 51.5458 26.3856 51.5172 26.4009C51.4887 26.4161 51.4635 26.437 51.4433 26.4623L49.4157 28.9373C49.3748 28.9869 49.3545 29.0503 49.3589 29.1144C49.3633 29.1785 49.3922 29.2385 49.4395 29.282C51.7348 31.3848 54.5545 32.494 57.5997 32.494C61.908 32.494 64.6928 30.0795 64.6928 26.3413C64.6928 23.1825 62.854 21.4353 58.3403 20.3097ZM77.5665 24.5447C77.5665 27.2103 75.9642 29.073 73.6707 29.073C71.4065 29.073 69.6942 27.1278 69.6942 24.5447C69.6942 21.9597 71.4047 20.0163 73.6725 20.0163C75.9275 20.0163 77.5665 21.9193 77.5665 24.5447ZM74.4388 16.5623C72.5725 16.5623 71.0398 17.3177 69.7767 18.865V17.1233C69.777 17.0584 69.752 16.9959 69.707 16.9492C69.6848 16.9263 69.6583 16.9081 69.6291 16.8955C69.5998 16.8829 69.5684 16.8762 69.5365 16.8758H66.2182C66.1863 16.8761 66.1548 16.8828 66.1255 16.8954C66.0963 16.908 66.0698 16.9262 66.0477 16.9492C66.0015 16.9961 65.9758 17.0594 65.9762 17.1252V36.4595C65.9762 36.5988 66.0862 36.7107 66.22 36.7107H69.5365C69.5685 36.71 69.6 36.7031 69.6293 36.6902C69.6585 36.6772 69.685 36.6587 69.707 36.6355C69.7525 36.5883 69.7775 36.525 69.7767 36.4595V30.3563C71.0417 31.812 72.5725 32.5197 74.4388 32.5197C77.9093 32.5197 81.4202 29.7807 81.4202 24.5447C81.4202 19.305 77.9093 16.5623 74.4388 16.5623ZM90.4255 29.1005C88.0477 29.1005 86.2565 27.1425 86.2565 24.5428C86.2565 21.9358 87.9853 20.042 90.3705 20.042C92.763 20.042 94.5652 22.0018 94.5652 24.6015C94.5652 27.2085 92.8253 29.1005 90.4255 29.1005ZM90.4255 16.5642C85.9558 16.5642 82.456 20.0952 82.456 24.5997C82.456 29.0583 85.932 32.5527 90.3705 32.5527C94.853 32.5527 98.3638 29.0327 98.3638 24.5428C98.3638 20.0695 94.8787 16.5642 90.4255 16.5642ZM107.906 16.8758H104.258V13.0478C104.259 12.9992 104.245 12.9515 104.219 12.9104C104.193 12.8694 104.156 12.8368 104.111 12.8168C104.081 12.8042 104.049 12.798 104.016 12.7985H100.7C100.635 12.7995 100.574 12.8259 100.529 12.8718C100.484 12.9186 100.459 12.9811 100.459 13.046V16.8722H98.8643C98.8157 16.8724 98.7682 16.8874 98.7282 16.9153C98.6883 16.9431 98.6578 16.9824 98.6407 17.028C98.6285 17.0583 98.6223 17.0907 98.6223 17.1233V20.0475C98.6223 20.1832 98.7323 20.295 98.8643 20.295H100.459V27.8593C100.459 30.9155 101.943 32.4665 104.867 32.4665C106.055 32.4665 107.041 32.2135 107.972 31.6708C108.01 31.649 108.041 31.6177 108.062 31.58C108.084 31.5424 108.095 31.4997 108.095 31.4563V28.6733C108.095 28.6313 108.084 28.59 108.064 28.5532C108.044 28.5164 108.015 28.4852 107.98 28.4625C107.945 28.4402 107.904 28.4275 107.863 28.4256C107.821 28.4236 107.78 28.4326 107.743 28.4515C107.103 28.7815 106.487 28.9337 105.798 28.9337C104.735 28.9337 104.258 28.4368 104.258 27.3277V20.295H107.906C107.939 20.295 107.97 20.2886 108 20.276C108.03 20.2634 108.056 20.2449 108.079 20.2217C108.125 20.1747 108.15 20.1115 108.15 20.0457V17.1215C108.15 17.0557 108.125 16.9925 108.079 16.9455C108.056 16.9224 108.029 16.9041 108 16.8915C107.97 16.8789 107.938 16.8723 107.906 16.8722V16.8758ZM120.619 16.8887V16.4212C120.619 15.037 121.134 14.4192 122.294 14.4192C122.984 14.4192 123.541 14.5603 124.162 14.7748C124.199 14.7865 124.237 14.7893 124.275 14.7829C124.313 14.7765 124.348 14.7612 124.379 14.7382C124.411 14.7151 124.437 14.6848 124.455 14.6498C124.472 14.6147 124.482 14.5759 124.482 14.5365V11.6692C124.482 11.6159 124.465 11.5639 124.434 11.5207C124.403 11.4774 124.36 11.4452 124.309 11.429C123.418 11.1509 122.489 11.0148 121.556 11.0257C118.494 11.0257 116.873 12.7948 116.873 16.137V16.8575H115.278C115.246 16.8579 115.215 16.8646 115.186 16.8772C115.156 16.8898 115.13 16.908 115.108 16.9308C115.062 16.9781 115.037 17.0413 115.038 17.1068V20.0457C115.038 20.1832 115.146 20.295 115.28 20.295H116.875V31.9623C116.875 32.0998 116.981 32.2098 117.115 32.2098H120.432C120.564 32.2098 120.672 32.0998 120.672 31.9623V20.295H123.77L128.511 31.9587C127.972 33.1852 127.442 33.429 126.72 33.429C126.135 33.429 125.521 33.2493 124.89 32.8973C124.861 32.8813 124.829 32.8714 124.796 32.8683C124.763 32.8651 124.729 32.8688 124.698 32.879C124.666 32.8902 124.637 32.9077 124.613 32.9304C124.588 32.953 124.569 32.9805 124.555 33.011L123.433 35.541C123.407 35.5977 123.403 35.6619 123.422 35.7212C123.441 35.7805 123.482 35.8306 123.536 35.8618C124.61 36.4883 125.834 36.8103 127.078 36.7932C129.523 36.7932 130.878 35.6235 132.072 32.4757L137.823 17.2278C137.837 17.19 137.842 17.1494 137.837 17.1093C137.833 17.0691 137.819 17.0306 137.797 16.9968C137.776 16.9636 137.746 16.9362 137.712 16.917C137.677 16.8978 137.639 16.8875 137.599 16.8868H134.147C134.095 16.8868 134.045 16.9031 134.004 16.9334C133.962 16.9637 133.931 17.0065 133.916 17.0555L130.381 27.4157L126.511 17.05C126.494 17.0031 126.463 16.9625 126.423 16.9336C126.382 16.9048 126.334 16.8891 126.284 16.8887H120.619ZM113.249 16.874H109.932C109.9 16.8746 109.869 16.8816 109.839 16.8945C109.81 16.9074 109.784 16.926 109.762 16.9492C109.716 16.9964 109.691 17.0596 109.692 17.1252V31.9642C109.692 32.1017 109.802 32.2117 109.934 32.2117H113.251C113.382 32.2117 113.491 32.1017 113.491 31.9642V17.1233C113.491 17.0578 113.466 16.9946 113.421 16.9473C113.399 16.9244 113.372 16.906 113.342 16.8935C113.313 16.8809 113.281 16.8743 113.249 16.874ZM111.606 10.1182C111.291 10.1207 110.981 10.1856 110.691 10.3093C110.402 10.433 110.14 10.6129 109.921 10.8387C109.476 11.297 109.226 11.913 109.23 12.5565C109.227 13.1979 109.475 13.815 109.921 14.2762C110.141 14.5014 110.403 14.681 110.693 14.8046C110.982 14.9282 111.293 14.9935 111.608 14.9967C112.242 14.993 112.849 14.7345 113.295 14.2762C113.74 13.8178 113.989 13.2 113.986 12.5565C113.986 11.209 112.921 10.1182 111.61 10.1182H111.606ZM140.789 18.3498H140.182V19.1455H140.789C141.092 19.1455 141.273 18.9933 141.273 18.7495C141.273 18.4892 141.092 18.3517 140.789 18.3517V18.3498ZM141.183 19.4847L141.843 20.4325H141.286L140.694 19.5635H140.182V20.4325H139.717V17.9208H140.807C141.376 17.9208 141.752 18.2197 141.752 18.7202C141.759 18.8935 141.707 19.0641 141.603 19.2033C141.5 19.3425 141.351 19.4419 141.183 19.4847ZM140.666 17.083C139.471 17.083 138.565 18.0583 138.565 19.2518C138.565 20.4435 139.464 21.406 140.653 21.406C141.849 21.406 142.756 20.4307 142.756 19.2372C142.756 18.0455 141.854 17.0848 140.666 17.0848V17.083ZM140.653 21.6443C140.344 21.644 140.038 21.5816 139.753 21.4606C139.468 21.3397 139.211 21.1627 138.996 20.9403C138.557 20.4897 138.314 19.8831 138.321 19.2537C138.321 17.9392 139.354 16.8447 140.666 16.8447C140.975 16.8452 141.281 16.9078 141.565 17.0287C141.85 17.1497 142.107 17.3265 142.322 17.5487C142.54 17.7718 142.712 18.0358 142.828 18.3256C142.944 18.6153 143.002 18.9251 142.998 19.2372C142.998 20.5517 141.966 21.6462 140.653 21.6462V21.6443Z" fill="black"/>
</svg>
