<svg width="25"  viewBox="0 0 23 22" fill="none" xmlns="http://www.w3.org/2000/svg">
<path d="M2.875 9.75728C2.875 8.80892 3.32342 7.9164 4.08432 7.35033L9.70932 3.16554C10.7722 2.37482 12.2278 2.37482 13.2907 3.16554L18.9157 7.35033C19.6766 7.9164 20.125 8.80892 20.125 9.75728V18.3333C20.125 18.8196 19.9231 19.2859 19.5636 19.6297C19.2042 19.9735 18.7167 20.1667 18.2083 20.1667H4.79167C4.28334 20.1667 3.79582 19.9735 3.43638 19.6297C3.07693 19.2859 2.875 18.8196 2.875 18.3333V9.75728Z" stroke="white" stroke-width="1.5" stroke-linecap="round" stroke-linejoin="round"/>
<path d="M8.625 20.1667V13.875C8.625 12.2872 9.91218 11 11.5 11V11C13.0878 11 14.375 12.2872 14.375 13.875V20.1667" stroke="white" stroke-width="1.5" stroke-linecap="round" stroke-linejoin="round"/>
</svg>
