<svg width="224" height="33" viewBox="0 0 224 33" fill="none" xmlns="http://www.w3.org/2000/svg">
<g clip-path="url(#clip0_0_1037)">
<path d="M20.2385 10.9802C19.8699 10.6115 19.4066 10.3517 18.8997 10.2295C18.3928 10.1073 17.862 10.1275 17.3658 10.2878C16.8697 10.4481 16.4274 10.7423 16.0879 11.138C15.7483 11.5337 15.5246 12.0155 15.4415 12.5302L18.6885 15.7772C19.2032 15.6941 19.685 15.4704 20.0807 15.1308C20.4764 14.7913 20.7706 14.349 20.9309 13.8529C21.0913 13.3567 21.1114 12.8259 20.9893 12.319C20.8671 11.8122 20.6073 11.3489 20.2385 10.9802ZM17.3125 16.5242L14.6935 13.9042C13.6465 15.0965 12.5995 16.2889 11.5525 17.4812L8.8775 20.5262C8.66269 20.772 8.54927 21.0902 8.56022 21.4164C8.57116 21.7426 8.70565 22.0525 8.93645 22.2833C9.16725 22.5141 9.47712 22.6486 9.80334 22.6595C10.1296 22.6705 10.4477 22.557 10.6935 22.3422L13.7535 19.6542L17.3135 16.5252L17.3125 16.5242ZM13.9325 12.5002C14.0232 11.6898 14.3409 10.9214 14.8491 10.2836C15.3572 9.64572 16.0351 9.16428 16.8047 8.89467C17.5744 8.62505 18.4045 8.57821 19.1996 8.75954C19.9947 8.94087 20.7224 9.34299 21.2991 9.91964C21.8757 10.4963 22.2779 11.224 22.4592 12.0191C22.6405 12.8142 22.5937 13.6444 22.3241 14.414C22.0544 15.1836 21.573 15.8615 20.9352 16.3697C20.2973 16.8778 19.5289 17.1955 18.7185 17.2862L14.7445 20.7792L11.6845 23.4682C11.1525 23.9349 10.4629 24.1817 9.75564 24.1585C9.04837 24.1354 8.37637 23.8441 7.87599 23.3437C7.3756 22.8434 7.0843 22.1714 7.06118 21.4641C7.03806 20.7568 7.28486 20.0672 7.7515 19.5352L10.4275 16.4902L13.9325 12.5002Z" fill="#A7A7A7"/>
</g>
<g clip-path="url(#clip1_0_1037)">
<path d="M53.8125 23.4062H39.8125V21.9062H53.8125V23.4062ZM53.8125 18.9062H39.8125V17.4062H53.8125V18.9062ZM39.8125 11.9062C39.8125 11.2432 40.0759 10.6073 40.5447 10.1385C41.0136 9.66964 41.6495 9.40625 42.3125 9.40625H51.3125C51.9755 9.40625 52.6114 9.66964 53.0803 10.1385C53.5491 10.6073 53.8125 11.2432 53.8125 11.9062C53.8125 12.5693 53.5491 13.2052 53.0803 13.674C52.6114 14.1429 51.9755 14.4062 51.3125 14.4062H42.3125C41.6495 14.4062 41.0136 14.1429 40.5447 13.674C40.0759 13.2052 39.8125 12.5693 39.8125 11.9062ZM42.3125 10.9062C42.0473 10.9062 41.7929 11.0116 41.6054 11.1991C41.4179 11.3867 41.3125 11.641 41.3125 11.9062C41.3125 12.1715 41.4179 12.4258 41.6054 12.6134C41.7929 12.8009 42.0473 12.9062 42.3125 12.9062H51.3125C51.5777 12.9062 51.8321 12.8009 52.0196 12.6134C52.2071 12.4258 52.3125 12.1715 52.3125 11.9062C52.3125 11.641 52.2071 11.3867 52.0196 11.1991C51.8321 11.0116 51.5777 10.9062 51.3125 10.9062H42.3125Z" fill="#A7A7A7"/>
</g>
<g clip-path="url(#clip2_0_1037)">
<path d="M76.8125 11.1562C76.8125 10.1902 77.5965 9.40625 78.5625 9.40625H85.0625C86.0285 9.40625 86.8125 10.1902 86.8125 11.1562V21.6562C86.8125 22.1204 86.6281 22.5655 86.2999 22.8937C85.9717 23.2219 85.5266 23.4062 85.0625 23.4062H78.5625C78.0984 23.4062 77.6533 23.2219 77.3251 22.8937C76.9969 22.5655 76.8125 22.1204 76.8125 21.6562V11.1562ZM78.5625 10.9062C78.4962 10.9062 78.4326 10.9326 78.3857 10.9795C78.3388 11.0264 78.3125 11.0899 78.3125 11.1562V21.6562C78.3125 21.7942 78.4245 21.9062 78.5625 21.9062H85.0625C85.1288 21.9062 85.1924 21.8799 85.2393 21.833C85.2862 21.7861 85.3125 21.7226 85.3125 21.6562V11.1562C85.3125 11.0899 85.2862 11.0264 85.2393 10.9795C85.1924 10.9326 85.1288 10.9062 85.0625 10.9062H78.5625ZM72.5625 10.9062C72.4962 10.9062 72.4326 10.9326 72.3857 10.9795C72.3388 11.0264 72.3125 11.0899 72.3125 11.1562V17.6562C72.3125 17.7942 72.4245 17.9062 72.5625 17.9062H74.8125V19.4062H72.5625C72.0984 19.4062 71.6533 19.2219 71.3251 18.8937C70.9969 18.5655 70.8125 18.1204 70.8125 17.6562V11.1562C70.8125 10.1902 71.5965 9.40625 72.5625 9.40625H74.8125V10.9062H72.5625ZM74.8125 23.4062H72.8125V21.9062H74.8125V23.4062Z" fill="white" fill-opacity="0.698"/>
<path d="M83.8125 18.4062C83.8125 18.9367 83.6018 19.4454 83.2267 19.8205C82.8516 20.1955 82.3429 20.4062 81.8125 20.4062C81.2821 20.4062 80.7734 20.1955 80.3983 19.8205C80.0232 19.4454 79.8125 18.9367 79.8125 18.4062C79.8125 17.8758 80.0232 17.3671 80.3983 16.992C80.7734 16.617 81.2821 16.4062 81.8125 16.4062C82.3429 16.4062 82.8516 16.617 83.2267 16.992C83.6018 17.3671 83.8125 17.8758 83.8125 18.4062ZM82.8125 13.4062C82.8125 13.6715 82.7071 13.9258 82.5196 14.1134C82.3321 14.3009 82.0777 14.4062 81.8125 14.4062C81.5473 14.4062 81.2929 14.3009 81.1054 14.1134C80.9179 13.9258 80.8125 13.6715 80.8125 13.4062C80.8125 13.141 80.9179 12.8867 81.1054 12.6991C81.2929 12.5116 81.5473 12.4062 81.8125 12.4062C82.0777 12.4062 82.3321 12.5116 82.5196 12.6991C82.7071 12.8867 82.8125 13.141 82.8125 13.4062Z" fill="white" fill-opacity="0.698"/>
</g>
<g clip-path="url(#clip3_0_1037)">
<path d="M112.554 9.25628C112.668 9.32215 112.762 9.4169 112.828 9.53101C112.894 9.64511 112.929 9.77455 112.929 9.90628V22.9063C112.929 23.038 112.894 23.1674 112.828 23.2814C112.762 23.3955 112.668 23.4903 112.554 23.5562C112.44 23.622 112.31 23.6567 112.179 23.6568C112.047 23.6568 111.918 23.6221 111.804 23.5563L104.879 19.5563C104.045 19.0728 103.437 18.2786 103.187 17.3476C102.938 16.4166 103.068 15.4247 103.549 14.5893C103.867 14.0363 104.326 13.577 104.879 13.2573L111.804 9.25728C111.918 9.19145 112.047 9.1568 112.179 9.1568C112.31 9.1568 112.44 9.19045 112.554 9.25628ZM105.63 14.5563C105.305 14.7443 105.037 15.0142 104.85 15.3389C104.663 15.6635 104.564 16.0316 104.564 16.4063C104.564 16.7809 104.663 17.149 104.85 17.4737C105.037 17.7984 105.305 18.0682 105.63 18.2563L111.43 21.6063V11.2063L105.63 14.5563ZM114.313 18.8463V13.9663C114.759 14.1984 115.133 14.5487 115.395 14.979C115.656 15.4092 115.794 15.9029 115.794 16.4063C115.794 16.9096 115.656 17.4033 115.395 17.8336C115.133 18.2638 114.759 18.6141 114.313 18.8463Z" fill="white" fill-opacity="0.698"/>
<path d="M114.312 22.0202C115.589 21.7355 116.73 21.0241 117.548 20.0036C118.366 18.983 118.812 17.7142 118.812 16.4062C118.812 15.0983 118.366 13.8295 117.548 12.8089C116.73 11.7883 115.589 11.077 114.312 10.7922V12.3422C115.181 12.6099 115.941 13.1489 116.481 13.8803C117.021 14.6116 117.313 15.4967 117.313 16.4057C117.313 17.3148 117.021 18.1999 116.481 18.9312C115.941 19.6625 115.181 20.2016 114.312 20.4692V22.0192V22.0202Z" fill="white" fill-opacity="0.698"/>
</g>
<rect x="126.812" y="14.4062" width="93" height="4" rx="2" fill="white" fill-opacity="0.298"/>
<g clip-path="url(#clip4_0_1037)">
<rect x="126.812" y="14.4062" width="93" height="4" rx="2" fill="white"/>
</g>
<defs>
<clipPath id="clip0_0_1037">
<rect width="16" height="16" fill="white" transform="translate(6.8125 8.40625)"/>
</clipPath>
<clipPath id="clip1_0_1037">
<rect width="16" height="16" fill="white" transform="translate(38.8125 8.40625)"/>
</clipPath>
<clipPath id="clip2_0_1037">
<rect width="16" height="16" fill="white" transform="translate(70.8125 8.40625)"/>
</clipPath>
<clipPath id="clip3_0_1037">
<rect width="16" height="16" fill="white" transform="translate(102.812 8.40625)"/>
</clipPath>
<clipPath id="clip4_0_1037">
<rect x="126.812" y="14.4062" width="93" height="4" rx="2" fill="white"/>
</clipPath>
</defs>
</svg>
